<svg width="35" height="35" viewBox="0 0 35 35" fill="none" xmlns="http://www.w3.org/2000/svg">
<path d="M4.74119 4.375C3.33084 4.375 2.1875 5.51832 2.1875 6.92869V13.4985C2.1875 18.5372 6.2722 22.6218 11.311 22.6218C11.4166 22.6218 11.5217 22.6201 11.6265 22.6166C11.1803 21.3587 10.9375 20.0046 10.9375 18.5938C10.9375 17.403 11.1105 16.2526 11.4327 15.1664L9.07036 12.8048C8.64316 12.3777 8.64307 11.6852 9.07014 11.258C9.49721 10.8308 10.1897 10.8307 10.6169 11.2577L12.3299 12.9702C13.6103 10.553 15.6903 8.62444 18.2176 7.53701C16.5446 5.6005 14.0709 4.375 11.311 4.375H4.74119Z" fill="#FBF6F1"/>
<path d="M15.2785 24.7391L11.3783 28.6423C10.9513 29.0697 10.9515 29.762 11.3788 30.189C11.8061 30.616 12.4987 30.6158 12.9256 30.1886L16.8255 26.2857C18.5093 27.6323 20.645 28.4375 22.9688 28.4375C28.4053 28.4375 32.8125 24.0303 32.8125 18.5938V11.4347C32.8125 9.95197 31.6105 8.75 30.1278 8.75H22.9688C17.5322 8.75 13.125 13.1572 13.125 18.5938C13.125 20.9185 13.9309 23.0549 15.2785 24.7391ZM23.7488 19.3572L18.3817 24.7242C17.7955 24.285 17.2743 23.7635 16.8354 23.177L22.202 17.8104C22.6293 17.3832 23.3216 17.3832 23.7488 17.8104C24.176 18.2375 24.176 18.93 23.7488 19.3572Z" fill="#FBF6F1"/>
</svg>
