<svg width="30" height="30" viewBox="0 0 30 30" fill="none" xmlns="http://www.w3.org/2000/svg">
<path d="M4.06387 3.75C2.85501 3.75 1.875 4.72999 1.875 5.93887V11.5701C1.875 15.889 5.37617 19.3901 9.6951 19.3901C9.78563 19.3901 9.87578 19.3886 9.96557 19.3856C9.58314 18.3074 9.375 17.1468 9.375 15.9375C9.375 14.9168 9.52328 13.9308 9.79946 12.9998L7.77459 10.9755C7.40843 10.6094 7.40835 10.0159 7.77441 9.64969C8.14046 9.28352 8.73407 9.28342 9.10024 9.6495L10.5685 11.1173C11.666 9.04543 13.4488 7.39237 15.6151 6.46029C14.1811 4.80043 12.0608 3.75 9.6951 3.75H4.06387Z" fill="#B0C38F"/>
<path d="M13.0958 21.2049L9.75273 24.5505C9.38675 24.9169 9.38698 25.5103 9.75322 25.8763C10.1195 26.2423 10.7131 26.2421 11.0791 25.8759L14.4218 22.5306C15.8651 23.6848 17.6957 24.375 19.6874 24.375C24.3474 24.375 28.1249 20.5974 28.1249 15.9375V9.80113C28.1249 8.53026 27.0946 7.5 25.8238 7.5H19.6874C15.0275 7.5 11.2499 11.2776 11.2499 15.9375C11.2499 17.9301 11.9407 19.7614 13.0958 21.2049ZM20.3561 16.5919L15.7557 21.1922C15.2532 20.8157 14.8065 20.3687 14.4302 19.866L19.0303 15.266C19.3964 14.8999 19.9899 14.8999 20.3561 15.266C20.7223 15.6322 20.7223 16.2257 20.3561 16.5919Z" fill="#B0C38F"/>
</svg>
