<svg width="23" height="23" viewBox="0 0 23 23" fill="none" xmlns="http://www.w3.org/2000/svg">
<path d="M16.7443 0.888121C18.1209 0.888121 19.4975 1.41029 20.5418 2.45459C22.6305 4.54323 22.6305 7.96103 20.5418 10.0497L10.0533 20.5382C9.00895 21.5825 7.63237 22.1047 6.25573 22.1047C4.8791 22.1047 3.50252 21.5825 2.45817 20.5382C0.369536 18.4496 0.369536 15.0318 2.45817 12.9431L12.9467 2.45459C13.991 1.41025 15.3676 0.888121 16.7443 0.888121ZM16.7443 0C15.0683 0 13.4966 0.648683 12.3187 1.8266L1.83018 12.3151C-0.610061 14.7553 -0.610061 18.7259 1.83018 21.1662C3.0081 22.3441 4.57981 22.9928 6.25573 22.9928C7.93166 22.9928 9.50337 22.3441 10.6813 21.1662L21.1698 10.6777C23.6101 8.2375 23.6101 4.26689 21.1698 1.82664C19.9919 0.648683 18.4202 0 16.7443 0Z" fill="black"/>
<path d="M8.29592 8.93982L14.0063 14.6502" stroke="black" stroke-width="3.45203" stroke-miterlimit="10" stroke-linecap="round"/>
</svg>
